<?xml version="1.0" encoding="UTF-8" standalone="no"?>
<!-- Uploaded to: SVG Repo, www.svgrepo.com, Generator: SVG Repo Mixer Tools -->

<svg
   height="554.716"
   width="800"
   version="1.1"
   id="Capa_1"
   viewBox="0 0 512 355.01824"
   xml:space="preserve"
   sodipodi:docname="amex.svg"
   inkscape:version="1.3 (0e150ed6c4, 2023-07-21)"
   xmlns:inkscape="http://www.inkscape.org/namespaces/inkscape"
   xmlns:sodipodi="http://sodipodi.sourceforge.net/DTD/sodipodi-0.dtd"
   xmlns="http://www.w3.org/2000/svg"
   xmlns:svg="http://www.w3.org/2000/svg"><defs
   id="defs9" /><sodipodi:namedview
   id="namedview9"
   pagecolor="#ffffff"
   bordercolor="#000000"
   borderopacity="0.25"
   inkscape:showpageshadow="2"
   inkscape:pageopacity="0.0"
   inkscape:pagecheckerboard="0"
   inkscape:deskcolor="#d1d1d1"
   inkscape:zoom="1.01625"
   inkscape:cx="400"
   inkscape:cy="400"
   inkscape:window-width="1920"
   inkscape:window-height="1009"
   inkscape:window-x="1912"
   inkscape:window-y="-8"
   inkscape:window-maximized="1"
   inkscape:current-layer="Capa_1" />&#10;<path
   style="fill:#306fc5"
   d="m 512,322.83 c 0,16.716 -13.55,30.267 -30.265,30.267 H 30.265 C 13.55,353.098 0,339.546 0,322.83 V 30.266 C 0,13.551 13.55,0 30.265,0 h 451.47 C 498.451,0 512,13.551 512,30.266 Z"
   id="path1" />&#10;<path
   style="opacity:0.15;fill:#202121;enable-background:new"
   d="M 21.517,322.83 V 30.266 C 21.517,13.551 35.069,0 51.784,0 H 30.264 C 13.55,0 0,13.55 0,30.266 v 292.565 c 0,16.716 13.55,30.267 30.265,30.267 h 21.52 c -16.715,0 -30.268,-13.552 -30.268,-30.268 z"
   id="path2" />&#10;<g
   id="g9"
   transform="translate(0,-79.451)">&#10;	<polygon
   style="fill:#ffffff"
   points="89.888,220.748 82.241,201.278 74.59,220.748 "
   id="polygon2" />&#10;	<polygon
   style="fill:#ffffff"
   points="155.946,304.885 155.946,315.318 184.455,315.318 197.666,300.712 185.151,286.107 155.946,286.107 155.946,295.148 181.675,295.148 181.675,304.885 "
   id="polygon3" />&#10;	<polygon
   style="fill:#ffffff"
   points="348.553,220.748 364.548,220.748 356.898,201.278 "
   id="polygon4" />&#10;	<polygon
   style="fill:#ffffff"
   points="230.348,281.241 212.268,300.712 230.348,320.875 "
   id="polygon5" />&#10;	<path
   style="fill:#ffffff"
   d="m 264.42,292.368 c -0.696,-4.172 -3.48,-6.261 -7.654,-6.261 h -14.599 v 12.516 h 15.299 c 4.171,0.001 6.954,-2.084 6.954,-6.255 z"
   id="path5" />&#10;	<path
   style="fill:#ffffff"
   d="m 313.09,297.236 c 1.391,-0.697 2.089,-2.785 2.089,-4.867 0.696,-2.779 -0.698,-4.172 -2.089,-4.868 -1.387,-0.696 -3.476,-0.696 -5.559,-0.696 h -13.91 v 11.127 h 13.909 c 2.083,0 4.172,0 5.56,-0.696 z"
   id="path6" />&#10;	<path
   style="fill:#ffffff"
   d="m 413.217,183.198 v 8.344 l -4.169,-8.344 H 376.37 v 8.344 l -4.174,-8.344 h -44.502 c -7.648,0 -13.909,1.392 -19.469,4.173 v -4.173 h -31.289 v 0.696 3.477 c -3.476,-2.78 -7.648,-4.173 -13.211,-4.173 h -111.95 l -7.652,17.384 -7.647,-17.384 h -25.031 -10.431 v 8.344 l -3.477,-8.344 H 96.841 66.942 l -13.909,32.68 -15.991,35.462 -0.294,0.697 h 0.294 35.463 0.444 l 0.252,-0.697 4.174,-10.428 h 9.039 l 4.172,11.125 h 40.326 v -0.697 -7.647 l 3.479,8.343 h 20.163 l 3.475,-8.343 v 7.647 0.697 h 15.993 79.965 0.696 v -18.08 h 1.394 c 1.389,0 1.389,0 1.389,2.087 v 15.297 h 50.065 v -4.172 c 4.172,2.089 10.426,4.172 18.771,4.172 h 20.863 l 4.172,-11.123 h 9.732 l 4.172,11.123 h 40.328 v -6.952 -3.476 l 6.261,10.428 h 1.387 0.698 30.595 v -68.143 h -31.291 v 0 z m -235.716,58.411 h -6.955 -4.171 v -4.169 -34.076 l -0.696,1.595 v -0.019 l -16.176,36.669 h -0.512 -3.719 -6.017 l -16.687,-38.245 v 38.245 h -23.64 l -4.867,-10.43 H 70.417 l -4.868,10.43 H 53.326 l 20.57,-48.675 h 17.382 l 19.469,46.587 v -46.587 h 4.171 14.251 l 0.328,0.697 h 0.024 l 8.773,19.094 6.3,14.306 0.223,-0.721 13.906,-33.375 H 177.5 v 48.674 z m 47.98,-38.245 h -27.119 v 9.039 h 26.423 v 9.734 h -26.423 v 9.738 h 27.119 v 10.427 h -38.939 v -49.367 h 38.939 z m 49.595,17.93 c 0.018,0.016 0.041,0.027 0.063,0.042 0.263,0.278 0.488,0.557 0.68,0.824 1.332,1.746 2.409,4.343 2.463,8.151 0.004,0.066 0.007,0.131 0.011,0.197 0,0.038 0.007,0.071 0.007,0.11 0,0.022 -0.002,0.039 -0.002,0.06 0.016,0.383 0.026,0.774 0.026,1.197 v 9.735 h -10.428 v -5.565 c 0,-2.781 0,-6.954 -2.089,-9.735 -0.657,-0.657 -1.322,-1.09 -2.046,-1.398 -1.042,-0.675 -3.017,-0.686 -6.295,-0.686 h -12.52 v 17.384 h -11.818 v -48.675 h 26.425 c 6.254,0 10.428,0 13.906,2.086 3.407,2.046 5.465,5.439 5.543,10.812 -0.161,7.4 -4.911,11.46 -8.326,12.829 0,0 2.32,0.467 4.4,2.632 z m 23.415,20.315 h -11.822 v -48.675 h 11.822 z m 135.592,0 h -15.3 l -22.25,-36.855 v 30.595 l -0.073,-0.072 v 6.362 h -11.747 v -0.029 h -11.822 l -4.172,-10.43 H 344.38 l -4.172,11.123 h -13.211 c -5.559,0 -12.517,-1.389 -16.687,-5.561 -4.172,-4.172 -6.256,-9.735 -6.256,-18.773 0,-6.953 1.389,-13.911 6.256,-19.472 3.474,-4.175 9.735,-5.562 17.382,-5.562 h 11.128 v 10.429 h -11.128 c -4.172,0 -6.254,0.693 -9.041,2.783 -2.082,2.085 -3.474,6.256 -3.474,11.123 0,5.564 0.696,9.04 3.474,11.821 2.091,2.089 4.87,2.785 8.346,2.785 h 4.867 l 15.991,-38.243 h 6.957 10.428 l 19.472,46.587 v -2.376 -15.705 -1.389 -27.116 h 17.382 l 20.161,34.07 v -34.07 h 11.826 v 47.977 h 0.002 z"
   id="path7" />&#10;	<path
   style="fill:#ffffff"
   d="m 265.161,213.207 c 0.203,-0.217 0.387,-0.463 0.543,-0.745 0.63,-0.997 1.352,-2.793 0.963,-5.244 -0.016,-0.225 -0.057,-0.433 -0.105,-0.634 -0.013,-0.056 -0.011,-0.105 -0.026,-0.161 l -0.007,0.001 c -0.346,-1.191 -1.229,-1.923 -2.11,-2.367 -1.394,-0.693 -3.48,-0.693 -5.565,-0.693 h -13.909 v 11.127 h 13.909 c 2.085,0 4.172,0 5.565,-0.697 0.209,-0.106 0.395,-0.25 0.574,-0.413 l 0.002,0.009 c 10e-4,-10e-4 0.072,-0.075 0.166,-0.183 z"
   id="path8" />&#10;	<path
   style="fill:#ffffff"
   d="m 475.105,311.144 c 0,-4.867 -1.389,-9.736 -3.474,-13.212 v -31.289 h -0.032 v -2.089 c 0,0 -29.145,0 -33.483,0 -4.336,0 -9.598,4.171 -9.598,4.171 v -4.171 h -31.984 c -4.87,0 -11.124,1.392 -13.909,4.171 v -4.171 h -57.016 v 2.089 2.081 c -4.169,-3.474 -11.824,-4.171 -15.298,-4.171 h -37.549 v 2.089 2.081 c -3.476,-3.474 -11.824,-4.171 -15.998,-4.171 H 215.05 l -9.737,10.431 -9.04,-10.431 h -2.911 -4.737 -54.93 v 2.089 5.493 62.651 h 61.19 l 10.054,-10.057 8.715,10.057 h 0.698 35.258 1.598 0.696 0.692 v -6.953 -9.039 h 3.479 c 4.863,0 11.124,0 15.991,-2.089 v 17.382 1.394 h 31.291 V 334.086 317.4 h 1.387 c 2.089,0 2.089,0 2.089,2.086 v 14.6 1.394 h 94.563 c 6.263,0 12.517,-1.394 15.993,-4.175 v 2.781 1.394 h 29.902 c 6.254,0 12.517,-0.695 16.689,-3.478 6.402,-3.841 10.437,-10.64 11.037,-18.749 0.028,-0.24 0.063,-0.48 0.085,-0.721 l -0.041,-0.039 c 0.026,-0.45 0.044,-0.895 0.044,-1.349 z m -219.029,-4.171 h -13.91 v 2.081 4.174 4.173 7.649 h -22.855 l -13.302,-15.299 -0.046,0.051 -0.65,-0.748 -15.297,15.996 h -44.501 v -48.673 h 45.197 l 12.348,13.525 2.596,2.832 0.352,-0.365 14.604,-15.991 h 36.852 c 7.152,0 15.161,1.765 18.196,9.042 0.365,1.441 0.577,3.043 0.577,4.863 0,13.906 -9.735,16.69 -20.161,16.69 z m 69.533,-0.697 c 1.389,2.081 2.085,4.867 2.085,9.041 v 9.732 h -11.819 v -6.256 c 0,-2.786 0,-7.65 -2.089,-9.739 -1.387,-2.081 -4.172,-2.081 -8.341,-2.081 H 292.93 v 18.077 h -11.82 v -49.369 h 26.421 c 5.559,0 10.426,0 13.909,2.084 3.474,2.088 6.254,5.565 6.254,11.128 0,7.647 -4.865,11.819 -8.343,13.212 3.478,1.385 5.563,2.78 6.258,4.171 z m 47.98,-20.169 h -27.122 v 9.04 h 26.424 v 9.737 h -26.424 v 9.736 h 27.122 v 10.429 H 334.65 V 275.68 h 38.939 z m 29.202,38.943 h -22.252 v -10.429 h 22.252 c 2.082,0 3.476,0 4.87,-1.392 0.696,-0.697 1.387,-2.085 1.387,-3.477 0,-1.394 -0.691,-2.778 -1.387,-3.475 -0.698,-0.695 -2.091,-1.391 -4.176,-1.391 -11.126,-0.696 -24.337,0 -24.337,-15.296 0,-6.954 4.172,-14.604 16.689,-14.604 h 22.945 v 11.819 h -21.554 c -2.085,0 -3.478,0 -4.87,0.696 -1.387,0.697 -1.387,2.089 -1.387,3.478 0,2.087 1.387,2.783 2.778,3.473 1.394,0.697 2.783,0.697 4.172,0.697 h 6.259 c 6.259,0 10.43,1.391 13.211,4.173 2.087,2.087 3.478,5.564 3.478,10.43 0,10.427 -6.258,15.298 -18.078,15.298 z m 59.799,-4.871 c -2.778,2.785 -7.648,4.871 -14.604,4.871 H 425.74 v -10.429 h 22.245 c 2.087,0 3.481,0 4.87,-1.392 0.693,-0.697 1.391,-2.085 1.391,-3.477 0,-1.394 -0.698,-2.778 -1.391,-3.475 -0.696,-0.695 -2.085,-1.391 -4.172,-1.391 -11.122,-0.696 -24.337,0 -24.337,-15.295 0,-6.609 3.781,-12.579 13.106,-14.352 1.115,-0.154 2.293,-0.253 3.583,-0.253 h 22.948 v 11.819 h -15.3 -5.561 -0.696 c -2.087,0 -3.476,0 -4.865,0.696 -0.7,0.697 -1.396,2.089 -1.396,3.478 0,2.087 0.696,2.783 2.785,3.473 1.389,0.697 2.78,0.697 4.172,0.697 h 0.691 5.565 c 3.039,0 5.337,0.375 7.44,1.114 1.926,0.697 8.302,3.549 9.728,10.994 0.124,0.78 0.215,1.594 0.215,2.495 0,4.173 -1.391,7.649 -4.171,10.427 z"
   id="path9" />&#10;</g>&#10;</svg>
