<?xml version="1.0" encoding="UTF-8" standalone="no"?>
<!-- Uploaded to: SVG Repo, www.svgrepo.com, Generator: SVG Repo Mixer Tools -->

<svg
   version="1.1"
   id="Capa_1"
   viewBox="0 0 512 353.09799"
   xml:space="preserve"
   sodipodi:docname="discover.svg"
   width="512"
   height="353.09799"
   inkscape:version="1.3 (0e150ed6c4, 2023-07-21)"
   xmlns:inkscape="http://www.inkscape.org/namespaces/inkscape"
   xmlns:sodipodi="http://sodipodi.sourceforge.net/DTD/sodipodi-0.dtd"
   xmlns="http://www.w3.org/2000/svg"
   xmlns:svg="http://www.w3.org/2000/svg"><defs
   id="defs7" /><sodipodi:namedview
   id="namedview7"
   pagecolor="#ffffff"
   bordercolor="#000000"
   borderopacity="0.25"
   inkscape:showpageshadow="2"
   inkscape:pageopacity="0.0"
   inkscape:pagecheckerboard="0"
   inkscape:deskcolor="#d1d1d1"
   inkscape:zoom="1.5878906"
   inkscape:cx="256"
   inkscape:cy="205.6187"
   inkscape:window-width="1920"
   inkscape:window-height="1009"
   inkscape:window-x="1912"
   inkscape:window-y="-8"
   inkscape:window-maximized="1"
   inkscape:current-layer="Capa_1" />&#10;<path
   style="fill:#34495e"
   d="m 512,322.831 c 0,16.716 -13.55,30.267 -30.265,30.267 H 30.265 C 13.55,353.098 0,339.545 0,322.831 V 30.266 C 0,13.55 13.55,0 30.265,0 h 451.469 c 16.716,0 30.265,13.551 30.265,30.266 z"
   id="path1" />&#10;<path
   style="opacity:0.15;fill:#202121;enable-background:new"
   d="M 21.517,322.831 V 30.266 C 21.517,13.55 35.069,0 51.784,0 H 30.264 C 13.55,0 0,13.552 0,30.266 v 292.565 c 0,16.716 13.55,30.267 30.265,30.267 h 21.52 c -16.715,0 -30.268,-13.553 -30.268,-30.267 z"
   id="path2" />&#10;<path
   style="fill:#f26e21"
   d="m 309.389,176.35 c 0.041,-9.636 -3.572,-19.286 -10.843,-26.558 -7.287,-7.287 -16.961,-10.897 -26.617,-10.839 -0.046,0 -0.091,-0.003 -0.139,-0.003 -20.968,0 -37.6,16.628 -37.6,37.602 0,20.767 16.837,37.599 37.6,37.599 20.974,0 37.604,-16.631 37.604,-37.599 0,-0.069 -0.005,-0.134 -0.005,-0.202 z"
   id="path3" />&#10;<g
   id="g7"
   transform="translate(0,-79.451)">&#10;	<path
   style="fill:#e7e8e3"
   d="m 227.198,271.909 c -5.62,5.626 -10.807,7.824 -16.394,7.943 -13.611,-0.122 -23.618,-10.202 -23.618,-24.573 0,-7.234 2.739,-13.163 7.078,-18.228 v 0 c 4.069,-3.863 9.311,-6.359 15.339,-6.359 6.507,0 11.571,2.169 17.352,7.954 v -16.631 c -5.78,-2.891 -10.846,-4.338 -17.352,-4.338 -9.192,0.657 -17.859,4.371 -24.507,10.203 v 0 c -1.916,1.724 -3.752,3.627 -5.309,5.805 -4.856,6.294 -7.791,14.001 -7.791,22.32 0,20.967 16.637,36.875 37.606,36.875 0.102,0 0.203,-0.009 0.302,-0.01 0.141,0.002 0.28,0.01 0.42,0.01 5.784,0 10.85,-1.443 17.357,-4.336 l -0.483,-16.635 c -0.244,0.244 0.242,0.471 0,0.702 z"
   id="path4" />&#10;	<polygon
   style="fill:#e7e8e3"
   points="306.502,220.566 336.148,293.601 344.102,293.601 375.196,220.566 360.013,220.566 356.863,228.033 340.487,268.295 321.685,220.566 "
   id="polygon4" />&#10;	<polygon
   style="fill:#e7e8e3"
   points="420.753,279.861 408.461,279.861 395.445,279.861 395.445,266.848 395.445,260.342 420.033,260.342 420.033,248.045 395.445,248.045 395.445,232.861 420.753,232.861 420.753,220.566 380.983,220.566 380.983,252.384 380.983,291.435 420.033,291.435 420.753,291.435 "
   id="polygon5" />&#10;	<path
   style="fill:#e7e8e3"
   d="M 54.135,220.566 H 33.884 v 70.869 h 20.25 c 10.845,0 18.798,-2.895 25.306,-7.957 7.953,-6.508 13.017,-16.629 13.017,-27.474 0.001,-20.976 -15.187,-35.438 -38.322,-35.438 z m 16.63,53.514 c -4.339,3.614 -10.124,5.781 -18.802,5.781 H 47.624 V 232.86 h 3.615 c 8.678,0 14.463,1.446 18.803,5.783 5.061,4.336 7.955,10.848 7.955,17.358 0.723,6.508 -2.169,13.736 -7.232,18.079 z"
   id="path5" />&#10;	<rect
   x="98.970001"
   y="220.56"
   style="fill:#e7e8e3"
   width="13.739"
   height="70.866997"
   id="rect5" />&#10;	<path
   style="fill:#e7e8e3"
   d="m 147.415,248.045 c -8.676,-2.892 -10.848,-5.063 -10.848,-8.677 0,-4.339 4.339,-7.954 10.124,-7.954 4.339,0 7.954,1.447 11.57,5.786 l 7.233,-9.4 c -5.787,-5.064 -13.015,-7.953 -20.97,-7.953 -12.296,0 -22.42,8.678 -22.42,20.244 0,10.126 4.343,14.464 17.357,19.526 5.785,2.166 7.955,2.892 9.404,4.338 2.887,1.444 4.336,4.339 4.336,7.228 0,5.786 -4.336,10.126 -10.848,10.126 -6.514,0 -12.294,-3.615 -15.187,-9.401 l -8.678,8.678 c 6.511,9.4 14.465,13.738 24.589,13.738 14.461,0 24.58,-9.4 24.58,-23.141 0.002,-12.29 -4.333,-17.352 -20.242,-23.138 z"
   id="path6" />&#10;	<path
   style="fill:#e7e8e3"
   d="m 459.804,261.783 c 10.843,-2.166 16.63,-9.4 16.63,-20.244 0,-13.014 -9.402,-20.973 -25.308,-20.973 h -20.972 v 70.869 h 13.739 V 263.23 h 2.172 l 19.519,28.205 h 16.634 z m -11.574,-8.678 h -4.336 v -21.691 h 4.336 c 8.678,0 13.742,3.614 13.742,10.85 0,7.228 -5.063,10.841 -13.742,10.841 z"
   id="path7" />&#10;</g>&#10;</svg>
