<?xml version="1.0" encoding="UTF-8" standalone="no"?>
<!-- Uploaded to: SVG Repo, www.svgrepo.com, Generator: SVG Repo Mixer Tools -->

<svg
   version="1.1"
   id="Capa_1"
   viewBox="0 0 512 353.09799"
   xml:space="preserve"
   sodipodi:docname="mc - built.svg"
   width="512"
   height="353.09799"
   inkscape:version="1.3 (0e150ed6c4, 2023-07-21)"
   xmlns:inkscape="http://www.inkscape.org/namespaces/inkscape"
   xmlns:sodipodi="http://sodipodi.sourceforge.net/DTD/sodipodi-0.dtd"
   xmlns="http://www.w3.org/2000/svg"
   xmlns:svg="http://www.w3.org/2000/svg"><defs
   id="defs8" /><sodipodi:namedview
   id="namedview8"
   pagecolor="#ffffff"
   bordercolor="#000000"
   borderopacity="0.25"
   inkscape:showpageshadow="2"
   inkscape:pageopacity="0.0"
   inkscape:pagecheckerboard="0"
   inkscape:deskcolor="#d1d1d1"
   inkscape:zoom="1.1228082"
   inkscape:cx="227.55445"
   inkscape:cy="199.05448"
   inkscape:window-width="1920"
   inkscape:window-height="1009"
   inkscape:window-x="1912"
   inkscape:window-y="-8"
   inkscape:window-maximized="1"
   inkscape:current-layer="Capa_1" />&#10;<path
   style="fill:#e7e8e3"
   d="m 512,322.831 c 0,16.716 -13.55,30.267 -30.265,30.267 H 30.265 C 13.55,353.098 0,339.545 0,322.831 V 30.266 C 0,13.55 13.55,0 30.265,0 h 451.469 c 16.716,0 30.265,13.551 30.265,30.266 z"
   id="path1" /><g
   id="g1"
   transform="translate(0,6.2343684)"><path
     id="XMLID_1775_"
     inkscape:connector-curvature="0"
     d="m 143.35474,321.08032 v -20.29143 c 0,-7.76196 -4.72811,-12.84467 -12.84468,-12.84467 -4.05828,0 -8.47118,1.33963 -11.50504,5.75252 -2.36405,-3.70368 -5.75252,-5.75252 -10.83523,-5.75252 -3.38847,0 -6.77695,1.02442 -9.456204,4.7281 v -4.05829 h -7.092151 v 32.46629 h 7.092151 v -17.92738 c 0,-5.75252 3.033864,-8.47118 7.761964,-8.47118 4.7281,0 7.09215,3.03387 7.09215,8.47118 v 17.92738 h 7.09215 v -17.92738 c 0,-5.75252 3.38848,-8.47118 7.76197,-8.47118 4.7281,0 7.09215,3.03387 7.09215,8.47118 v 17.92738 z m 105.20023,-32.46629 h -11.50504 v -9.81081 h -7.09215 v 9.81081 h -6.42234 v 6.42234 h 6.42234 v 14.89352 c 0,7.44675 3.03386,11.82025 11.15043,11.82025 3.03387,0 6.42234,-1.02443 8.78639,-2.36405 l -2.04884,-6.10713 c -2.04885,1.33963 -4.4129,1.69423 -6.10713,1.69423 -3.38847,0 -4.7281,-2.04884 -4.7281,-5.39791 v -14.53891 h 11.50504 v -6.42234 z m 60.20448,-0.70921 c -4.05828,0 -6.77694,2.04884 -8.47118,4.7281 v -4.05829 h -7.09215 v 32.46629 h 7.09215 v -18.28199 c 0,-5.39791 2.36405,-8.47118 6.77695,-8.47118 1.33963,0 3.03386,0.35461 4.41289,0.66982 l 2.04884,-6.77695 c -1.41843,-0.2758 -3.42787,-0.2758 -4.7675,-0.2758 z m -90.97653,3.38847 c -3.38847,-2.36405 -8.11657,-3.38847 -13.19928,-3.38847 -8.11658,0 -13.51449,4.05828 -13.51449,10.48062 0,5.39791 4.05829,8.47118 11.15044,9.4562 l 3.38847,0.35461 c 3.70368,0.66981 5.75252,1.69423 5.75252,3.38847 0,2.36405 -2.71866,4.05829 -7.44676,4.05829 -4.7281,0 -8.47118,-1.69424 -10.83523,-3.38848 l -3.38847,5.39792 c 3.70368,2.71866 8.78639,4.05829 13.8691,4.05829 9.4562,0 14.89351,-4.4129 14.89351,-10.48063 0,-5.75252 -4.41289,-8.78638 -11.15043,-9.81081 l -3.38848,-0.3546 c -3.03386,-0.35461 -5.39791,-1.02442 -5.39791,-3.03387 0,-2.36405 2.36405,-3.70368 6.10713,-3.70368 4.05828,0 8.11657,1.69424 10.16541,2.71866 z m 188.69061,-3.38847 c -4.05829,0 -6.77694,2.04884 -8.47118,4.7281 v -4.05829 h -7.09215 v 32.46629 h 7.09215 v -18.28199 c 0,-5.39791 2.36405,-8.47118 6.77694,-8.47118 1.33963,0 3.03387,0.35461 4.4129,0.66982 l 2.04884,-6.69815 c -1.37903,-0.3546 -3.38847,-0.3546 -4.7675,-0.3546 z m -90.62193,16.94236 c 0,9.81081 6.77695,16.90296 17.25757,16.90296 4.7281,0 8.11657,-1.02443 11.50505,-3.70368 l -3.38848,-5.75252 c -2.71865,2.04884 -5.39791,3.03386 -8.47118,3.03386 -5.75252,0 -9.8108,-4.05829 -9.8108,-10.48062 0,-6.10713 4.05828,-10.16542 9.8108,-10.48063 3.03387,0 5.75253,1.02443 8.47118,3.03387 l 3.38848,-5.75252 c -3.38848,-2.71866 -6.77695,-3.70368 -11.50505,-3.70368 -10.48062,-0.0394 -17.25757,7.09215 -17.25757,16.90296 z m 65.6024,0 v -16.23315 h -7.09215 v 4.05829 c -2.36405,-3.03387 -5.75252,-4.7281 -10.16542,-4.7281 -9.14099,0 -16.23314,7.09215 -16.23314,16.90296 0,9.81081 7.09215,16.90296 16.23314,16.90296 4.7281,0 8.11657,-1.69424 10.16542,-4.7281 v 4.05828 h 7.09215 z m -26.04395,0 c 0,-5.75252 3.70367,-10.48063 9.8108,-10.48063 5.75253,0 9.81081,4.4129 9.81081,10.48063 0,5.75252 -4.05828,10.48062 -9.81081,10.48062 -6.06773,-0.35461 -9.8108,-4.7675 -9.8108,-10.48062 z m -84.86941,-16.94236 c -9.4562,0 -16.23315,6.77694 -16.23315,16.90296 0,10.16541 6.77695,16.90296 16.58776,16.90296 4.7281,0 9.4562,-1.33963 13.19928,-4.4129 l -3.38847,-5.08271 c -2.71866,2.04885 -6.10713,3.38848 -9.4562,3.38848 -4.4129,0 -8.78639,-2.04885 -9.81081,-7.76197 h 23.99511 c 0,-1.02442 0,-1.69423 0,-2.71866 0.3152,-10.44122 -5.79193,-17.21816 -14.89352,-17.21816 z m 0,6.10713 c 4.41289,0 7.44676,2.71865 8.11657,7.76196 h -16.90296 c 0.66982,-4.37349 3.70368,-7.76196 8.78639,-7.76196 z m 176.20055,10.83523 v -29.07782 h -7.09215 v 16.90296 c -2.36405,-3.03387 -5.75253,-4.7281 -10.16542,-4.7281 -9.14099,0 -16.23315,7.09215 -16.23315,16.90296 0,9.81081 7.09216,16.90296 16.23315,16.90296 4.7281,0 8.11657,-1.69424 10.16542,-4.7281 v 4.05828 h 7.09215 z m -26.04396,0 c 0,-5.75252 3.70368,-10.48063 9.81081,-10.48063 5.75252,0 9.81081,4.4129 9.81081,10.48063 0,5.75252 -4.05829,10.48062 -9.81081,10.48062 -6.10713,-0.35461 -9.81081,-4.7675 -9.81081,-10.48062 z m -237.42945,0 v -16.23315 h -7.09215 v 4.05829 c -2.36405,-3.03387 -5.75252,-4.7281 -10.16541,-4.7281 -9.141,0 -16.23315,7.09215 -16.23315,16.90296 0,9.81081 7.09215,16.90296 16.23315,16.90296 4.7281,0 8.11657,-1.69424 10.16541,-4.7281 v 4.05828 h 7.09215 z m -26.35916,0 c 0,-5.75252 3.70368,-10.48063 9.81081,-10.48063 5.75252,0 9.81081,4.4129 9.81081,10.48063 0,5.75252 -4.05829,10.48062 -9.81081,10.48062 -6.10713,-0.35461 -9.81081,-4.7675 -9.81081,-10.48062 z"
     style="stroke-width:0.394008" /><g
     id="g2"
     transform="matrix(0.39400838,0,0,0.39400838,71.999818,15.999636)">&#10;	<rect
   id="rect19"
   x="364"
   y="66.099998"
   fill="#ff5a00"
   width="270.39999"
   height="485.79999" />&#10;	<path
   id="XMLID_330_"
   inkscape:connector-curvature="0"
   fill="#eb001b"
   d="M 382,309 C 382,210.3 428.4,122.7 499.6,66.1 447.2,24.9 381.1,0 309,0 138.2,0 0,138.2 0,309 0,479.8 138.2,618 309,618 381.1,618 447.2,593.1 499.6,551.9 428.3,496.1 382,407.7 382,309 Z" />&#10;	<path
   id="path22"
   inkscape:connector-curvature="0"
   fill="#f79e1b"
   d="M 999.2,309 C 999.2,479.8 861,618 690.2,618 618.1,618 552,593.1 499.6,551.9 571.7,495.2 617.2,407.7 617.2,309 617.2,210.3 570.8,122.7 499.6,66.1 551.9,24.9 618,0 690.1,0 861,0 999.2,139.1 999.2,309 Z" />&#10;</g></g>&#10;&#10;&#10;<path
   style="opacity:0.15;fill:#202121;enable-background:new"
   d="M 21.517,322.831 V 30.266 C 21.517,13.55 35.069,0 51.784,0 H 30.264 C 13.55,0 0,13.552 0,30.266 v 292.565 c 0,16.716 13.55,30.267 30.265,30.267 h 21.52 c -16.715,0 -30.268,-13.553 -30.268,-30.267 z"
   id="path2" />&#10;&#10;&#10;&#10;&#10;</svg>
