<svg width="512" height="353" viewBox="0 0 512 353" fill="none" xmlns="http://www.w3.org/2000/svg">
<g clip-path="url(#clip0_334_766)">
<path d="M512 322.74C512 339.452 498.45 352.999 481.735 352.999H30.265C13.55 353 0 339.452 0 322.74V30.2576C0 13.5462 13.55 0 30.265 0H481.735C498.451 0 512 13.5472 512 30.2576V322.74Z" fill="white"/>
<path opacity="0.15" d="M21.517 322.74V30.2576C21.517 13.5462 35.068 0 51.784 0H30.264C13.55 0 0 13.5462 0 30.2576V322.741C0 339.453 13.55 353 30.265 353H51.785C35.069 353 21.517 339.452 21.517 322.74Z" fill="#202121"/>
<g clip-path="url(#clip1_334_766)">
<path d="M206.008 100.748L142.904 251.65H101.733L70.6791 131.223C68.7938 123.805 67.1545 121.088 61.4207 117.963C52.0593 112.873 36.6002 108.097 22.9987 105.133L23.9226 100.748H90.1951C98.6426 100.748 106.237 106.384 108.155 116.134L124.555 203.453L165.088 100.745H206.008V100.748ZM367.322 202.382C367.488 162.554 312.374 160.36 312.754 142.568C312.872 137.153 318.015 131.397 329.275 129.927C334.855 129.195 350.232 128.636 367.671 136.68L374.512 104.68C365.141 101.271 353.083 97.9899 338.081 97.9899C299.584 97.9899 272.491 118.501 272.263 147.872C272.015 169.596 291.601 181.719 306.357 188.938C321.537 196.33 326.631 201.081 326.573 207.693C326.465 217.816 314.466 222.284 303.252 222.46C283.675 222.762 272.316 217.151 263.261 212.932L256.201 245.991C265.302 250.175 282.099 253.826 299.514 254.01C340.431 254.01 367.197 233.753 367.322 202.382ZM468.979 251.65H505.001L473.558 100.748H440.31C432.834 100.748 426.528 105.111 423.737 111.819L365.292 251.65H406.189L414.307 229.11H464.277L468.979 251.65ZM425.521 198.182L446.022 141.524L457.821 198.182H425.521ZM261.657 100.748L229.45 251.65H190.504L222.722 100.748H261.657Z" fill="#1434CB"/>
</g>
</g>
<defs>
<clipPath id="clip0_334_766">
<rect width="512" height="353" fill="white"/>
</clipPath>
<clipPath id="clip1_334_766">
<rect width="482" height="156" fill="white" transform="translate(23 98)"/>
</clipPath>
</defs>
</svg>
